<?xml version="1.0" encoding="UTF-8" standalone="no" ?>
<!DOCTYPE svg PUBLIC "-//W3C//DTD SVG 1.1//EN" "http://www.w3.org/Graphics/SVG/1.1/DTD/svg11.dtd">
<svg xmlns="http://www.w3.org/2000/svg" xmlns:xlink="http://www.w3.org/1999/xlink" version="1.1" width="491.96000000000004" height="468.408" xml:space="preserve">
<desc>Created with Fabric.js 1.6.0-rc.1</desc>
<defs></defs>
<g style="stroke: none; stroke-width: 1; stroke-dasharray: none; stroke-linecap: butt; stroke-linejoin: miter; stroke-miterlimit: 10; fill: none; fill-rule: nonzero; opacity: 1;" transform="translate(10 10) scale(0.92 0.92)" >
  <polygon points="324.27,469.33 187.73,469.33 204.8,401.07 307.2,401.07 " style="stroke: none; stroke-width: 1; stroke-dasharray: none; stroke-linecap: butt; stroke-linejoin: miter; stroke-miterlimit: 10; fill: #FFFFFF; fill-rule: nonzero; opacity: 1;" transform="  matrix(1 0 0 1 0 0) "/>
  <path d="M 503.467 59.733 c 0 -14.507 -11.093 -25.6 -25.6 -25.6 H 34.133 c -14.507 0 -25.6 11.093 -25.6 25.6 v 307.2 c 0 14.507 11.093 25.6 25.6 25.6 h 443.733 c 14.507 0 25.6 -11.093 25.6 -25.6 V 59.733 z" style="stroke: none; stroke-width: 1; stroke-dasharray: none; stroke-linecap: butt; stroke-linejoin: miter; stroke-miterlimit: 10; fill: #FFFFFF; fill-rule: nonzero; opacity: 1;" transform=" matrix(1 0 0 1 0 0) " stroke-linecap="round" />
  <path d="M 477.867 401.067 H 34.133 C 15.36 401.067 0 385.707 0 366.933 v -307.2 C 0 40.96 15.36 25.6 34.133 25.6 h 443.733 C 496.64 25.6 512 40.96 512 59.733 v 307.2 C 512 385.707 496.64 401.067 477.867 401.067 z M 34.133 42.667 c -9.387 0 -17.067 7.68 -17.067 17.067 v 307.2 c 0 9.387 7.68 17.067 17.067 17.067 h 443.733 c 9.387 0 17.067 -7.68 17.067 -17.067 v -307.2 c 0 -9.387 -7.68 -17.067 -17.067 -17.067 H 34.133 z" style="stroke: none; stroke-width: 1; stroke-dasharray: none; stroke-linecap: butt; stroke-linejoin: miter; stroke-miterlimit: 10; fill: #4D5152; fill-rule: nonzero; opacity: 1;" transform=" matrix(1 0 0 1 0 0) " stroke-linecap="round" />
  <rect x="280.73" y="426.64" rx="0" ry="0" width="69.97" height="17.07" style="stroke: none; stroke-width: 1; stroke-dasharray: none; stroke-linecap: butt; stroke-linejoin: miter; stroke-miterlimit: 10; fill: #4D5152; fill-rule: nonzero; opacity: 1;" transform=" matrix(-0.2425 -0.9701 0.9701 -0.2425 -29.9032 846.9955) "/>
  <rect x="187.72" y="400.21" rx="0" ry="0" width="17.07" height="69.97" style="stroke: none; stroke-width: 1; stroke-dasharray: none; stroke-linecap: butt; stroke-linejoin: miter; stroke-miterlimit: 10; fill: #4D5152; fill-rule: nonzero; opacity: 1;" transform=" matrix(-0.9702 -0.2422 0.2422 -0.9702 281.2662 904.9634) "/>
  <rect x="145.07" y="469.33" rx="0" ry="0" width="221.87" height="17.07" style="stroke: none; stroke-width: 1; stroke-dasharray: none; stroke-linecap: butt; stroke-linejoin: miter; stroke-miterlimit: 10; fill: #4D5152; fill-rule: nonzero; opacity: 1;" transform=" matrix(1 0 0 1 0 0) "/>
  <rect x="17.07" y="315.73" rx="0" ry="0" width="477.87" height="17.07" style="stroke: none; stroke-width: 1; stroke-dasharray: none; stroke-linecap: butt; stroke-linejoin: miter; stroke-miterlimit: 10; fill: #4D5152; fill-rule: nonzero; opacity: 1;" transform=" matrix(1 0 0 1 0 0) "/>
  <rect x="247.47" y="349.87" rx="0" ry="0" width="17.07" height="17.07" style="stroke: none; stroke-width: 1; stroke-dasharray: none; stroke-linecap: butt; stroke-linejoin: miter; stroke-miterlimit: 10; fill: #4D5152; fill-rule: nonzero; opacity: 1;" transform=" matrix(1 0 0 1 0 0) "/>
  <rect x="34.13" y="59.73" rx="0" ry="0" width="443.73" height="238.93" style="stroke: none; stroke-width: 1; stroke-dasharray: none; stroke-linecap: butt; stroke-linejoin: miter; stroke-miterlimit: 10; fill: #67DDE0; fill-rule: nonzero; opacity: 1;" transform=" matrix(1 0 0 1 0 0) "/>
  <rect x="247.47" y="264.53" rx="0" ry="0" width="17.07" height="17.07" style="stroke: none; stroke-width: 1; stroke-dasharray: none; stroke-linecap: butt; stroke-linejoin: miter; stroke-miterlimit: 10; fill: #4D5152; fill-rule: nonzero; opacity: 1;" transform=" matrix(1 0 0 1 0 0) "/>
  <rect x="281.6" y="264.53" rx="0" ry="0" width="17.07" height="17.07" style="stroke: none; stroke-width: 1; stroke-dasharray: none; stroke-linecap: butt; stroke-linejoin: miter; stroke-miterlimit: 10; fill: #4D5152; fill-rule: nonzero; opacity: 1;" transform=" matrix(1 0 0 1 0 0) "/>
  <rect x="315.73" y="264.53" rx="0" ry="0" width="17.07" height="17.07" style="stroke: none; stroke-width: 1; stroke-dasharray: none; stroke-linecap: butt; stroke-linejoin: miter; stroke-miterlimit: 10; fill: #4D5152; fill-rule: nonzero; opacity: 1;" transform=" matrix(1 0 0 1 0 0) "/>
  <rect x="213.33" y="264.53" rx="0" ry="0" width="17.07" height="17.07" style="stroke: none; stroke-width: 1; stroke-dasharray: none; stroke-linecap: butt; stroke-linejoin: miter; stroke-miterlimit: 10; fill: #4D5152; fill-rule: nonzero; opacity: 1;" transform=" matrix(1 0 0 1 0 0) "/>
  <rect x="179.2" y="264.53" rx="0" ry="0" width="17.07" height="17.07" style="stroke: none; stroke-width: 1; stroke-dasharray: none; stroke-linecap: butt; stroke-linejoin: miter; stroke-miterlimit: 10; fill: #4D5152; fill-rule: nonzero; opacity: 1;" transform=" matrix(1 0 0 1 0 0) "/>
</g>
<g style="stroke: none; stroke-width: 1; stroke-dasharray: none; stroke-linecap: butt; stroke-linejoin: miter; stroke-miterlimit: 10; fill: none; fill-rule: nonzero; opacity: 1;" transform="translate(57.180000000000064 60.729999999999976) scale(0.37 0.37)" >
  <path d="M 335.453 61.835 c -0.759 0 -1.53 -0.099 -2.302 -0.306 c -20.392 -5.495 -47.793 -8.524 -77.151 -8.524 s -56.758 3.028 -77.151 8.524 c -4.707 1.271 -9.551 -1.519 -10.819 -6.227 c -1.271 -4.707 1.517 -9.551 6.225 -10.822 c 21.849 -5.888 50.879 -9.131 81.746 -9.131 s 59.896 3.243 81.746 9.131 c 4.707 1.269 7.496 6.114 6.225 10.822 C 342.91 59.241 339.345 61.835 335.453 61.835 z" style="stroke: none; stroke-width: 1; stroke-dasharray: none; stroke-linecap: butt; stroke-linejoin: miter; stroke-miterlimit: 10; fill: #9B5A50; fill-rule: nonzero; opacity: 1;" transform=" matrix(1 0 0 1 0 0) " stroke-linecap="round" />
  <path d="M 176.552 44.178 L 176.552 44.178 c -4.875 0 -8.828 3.953 -8.828 8.828 v 44.138 h 17.655 V 53.005 C 185.379 48.13 181.427 44.178 176.552 44.178 z" style="stroke: none; stroke-width: 1; stroke-dasharray: none; stroke-linecap: butt; stroke-linejoin: miter; stroke-miterlimit: 10; fill: #FFC36E; fill-rule: nonzero; opacity: 1;" transform=" matrix(1 0 0 1 0 0) " stroke-linecap="round" />
  <path d="M 335.448 44.178 L 335.448 44.178 c -4.875 0 -8.828 3.953 -8.828 8.828 v 44.138 h 17.655 V 53.005 C 344.276 48.13 340.323 44.178 335.448 44.178 z" style="stroke: none; stroke-width: 1; stroke-dasharray: none; stroke-linecap: butt; stroke-linejoin: miter; stroke-miterlimit: 10; fill: #FFC36E; fill-rule: nonzero; opacity: 1;" transform=" matrix(1 0 0 1 0 0) " stroke-linecap="round" />
  <path d="M 459.034 476.65 H 52.966 c -19.501 0 -35.31 -15.809 -35.31 -35.31 V 273.695 h 476.69 V 441.34 C 494.345 460.841 478.536 476.65 459.034 476.65 z" style="stroke: none; stroke-width: 1; stroke-dasharray: none; stroke-linecap: butt; stroke-linejoin: miter; stroke-miterlimit: 10; fill: #915046; fill-rule: nonzero; opacity: 1;" transform=" matrix(1 0 0 1 0 0) " stroke-linecap="round" />
  <path d="M 247.172 256.04 H 35.31 v 185.3 c 0 9.751 7.904 17.655 17.655 17.655 h 185.379 c 4.875 0 8.828 -3.953 8.828 -8.828 V 256.04 z" style="stroke: none; stroke-width: 1; stroke-dasharray: none; stroke-linecap: butt; stroke-linejoin: miter; stroke-miterlimit: 10; fill: #9B5A50; fill-rule: nonzero; opacity: 1;" transform=" matrix(1 0 0 1 0 0) " stroke-linecap="round" />
  <path d="M 264.828 256.04 v 194.127 c 0 4.875 3.953 8.828 8.828 8.828 h 185.379 c 9.751 0 17.655 -7.904 17.655 -17.655 v -185.3 H 264.828 z" style="stroke: none; stroke-width: 1; stroke-dasharray: none; stroke-linecap: butt; stroke-linejoin: miter; stroke-miterlimit: 10; fill: #9B5A50; fill-rule: nonzero; opacity: 1;" transform=" matrix(1 0 0 1 0 0) " stroke-linecap="round" />
  <path d="M 459.034 300.178 H 52.966 C 23.713 300.178 0 276.465 0 247.212 V 105.891 c 0 -9.751 7.904 -17.655 17.655 -17.655 h 476.69 c 9.751 0 17.655 7.904 17.655 17.655 v 141.321 C 512 276.465 488.287 300.178 459.034 300.178 z" style="stroke: none; stroke-width: 1; stroke-dasharray: none; stroke-linecap: butt; stroke-linejoin: miter; stroke-miterlimit: 10; fill: #AA6455; fill-rule: nonzero; opacity: 1;" transform=" matrix(1 0 0 1 0 0) " stroke-linecap="round" />
  <path d="M 459.034 317.833 c 12.87 0 24.908 -3.517 35.31 -9.556 v -21.666 c -9.376 8.408 -21.726 13.566 -35.31 13.566 H 52.966 c -13.586 0 -25.935 -5.159 -35.31 -13.567 v 21.666 c 10.402 6.039 22.441 9.556 35.31 9.556 h 406.069 V 317.833 z" style="stroke: none; stroke-width: 1; stroke-dasharray: none; stroke-linecap: butt; stroke-linejoin: miter; stroke-miterlimit: 10; fill: #874641; fill-rule: nonzero; opacity: 1;" transform=" matrix(1 0 0 1 0 0) " stroke-linecap="round" />
  <path d="M 273.655 229.557 h -35.31 c -4.875 0 -8.828 3.953 -8.828 8.828 v 61.793 c 0 4.875 3.953 8.828 8.828 8.828 h 35.31 c 4.875 0 8.828 -3.953 8.828 -8.828 v -61.793 C 282.483 233.51 278.53 229.557 273.655 229.557 z" style="stroke: none; stroke-width: 1; stroke-dasharray: none; stroke-linecap: butt; stroke-linejoin: miter; stroke-miterlimit: 10; fill: #9B5A50; fill-rule: nonzero; opacity: 1;" transform=" matrix(1 0 0 1 0 0) " stroke-linecap="round" />
  <path d="M 282.483 335.488 h -52.966 c -4.875 0 -8.828 -3.953 -8.828 -8.828 v -44.138 c 0 -4.875 3.953 -8.828 8.828 -8.828 h 52.966 c 4.875 0 8.828 3.953 8.828 8.828 v 44.138 C 291.31 331.535 287.358 335.488 282.483 335.488 z" style="stroke: none; stroke-width: 1; stroke-dasharray: none; stroke-linecap: butt; stroke-linejoin: miter; stroke-miterlimit: 10; fill: #FFC36E; fill-rule: nonzero; opacity: 1;" transform=" matrix(1 0 0 1 0 0) " stroke-linecap="round" />
  <path d="M 273.655 335.488 h -35.31 v -35.31 c 0 -4.875 3.953 -8.828 8.828 -8.828 h 17.655 c 4.875 0 8.828 3.953 8.828 8.828 V 335.488 z" style="stroke: none; stroke-width: 1; stroke-dasharray: none; stroke-linecap: butt; stroke-linejoin: miter; stroke-miterlimit: 10; fill: #FFD782; fill-rule: nonzero; opacity: 1;" transform=" matrix(1 0 0 1 0 0) " stroke-linecap="round" />
  <circle cx="255.995" cy="185.425" r="17.655" style="stroke: none; stroke-width: 1; stroke-dasharray: none; stroke-linecap: butt; stroke-linejoin: miter; stroke-miterlimit: 10; fill: #9B5A50; fill-rule: nonzero; opacity: 1;" transform="  matrix(1 0 0 1 0 0) "/>
</g>
<g style="stroke: none; stroke-width: 1; stroke-dasharray: none; stroke-linecap: butt; stroke-linejoin: miter; stroke-miterlimit: 10; fill: none; fill-rule: nonzero; opacity: 1;" transform="translate(254.2600000000001 67.28999999999998) scale(2.99 2.99)" >
  <path d="M 46.324 52.5 H 1.565 c -1.03 0 -1.779 -0.978 -1.51 -1.973 l 10.166 -27.871 c 0.184 -0.682 0.803 -1.156 1.51 -1.156 H 56.49 c 1.03 0 1.51 0.984 1.51 1.973 L 47.834 51.344 C 47.65 52.026 47.031 52.5 46.324 52.5 z" style="stroke: none; stroke-width: 1; stroke-dasharray: none; stroke-linecap: butt; stroke-linejoin: miter; stroke-miterlimit: 10; fill: #EFCE4A; fill-rule: nonzero; opacity: 1;" transform=" matrix(1 0 0 1 0 0) " stroke-linecap="round" />
  <path d="M 10.221 22.656 c 0.184 -0.683 0.803 -1.156 1.51 -1.156 H 53 v -7 H 9 l -6 6 v 21.953 L 10.221 22.656 z" style="stroke: none; stroke-width: 1; stroke-dasharray: none; stroke-linecap: butt; stroke-linejoin: miter; stroke-miterlimit: 10; fill: #F4EFDC; fill-rule: nonzero; opacity: 1;" transform=" matrix(1 0 0 1 0 0) " stroke-linecap="round" />
  <path d="M 23.571 10.5 L 20 5.5 H 1.732 C 0.776 5.5 0 6.275 0 7.232 V 49.96 c 0.069 0.002 0.138 0.006 0.205 0.01 L 3 42.349 V 20.5 l 2 -2 v -8 H 23.571 z" style="stroke: none; stroke-width: 1; stroke-dasharray: none; stroke-linecap: butt; stroke-linejoin: miter; stroke-miterlimit: 10; fill: #EBBA16; fill-rule: nonzero; opacity: 1;" transform=" matrix(1 0 0 1 0 0) " stroke-linecap="round" />
  <polygon points="5,10.5 5,18.5 9,14.5 51,14.5 51,10.5 " style="stroke: none; stroke-width: 1; stroke-dasharray: none; stroke-linecap: butt; stroke-linejoin: miter; stroke-miterlimit: 10; fill: #D1BF86; fill-rule: nonzero; opacity: 1;" transform="  matrix(1 0 0 1 0 0) "/>
  <rect x="28" y="19.5" rx="0" ry="0" width="2" height="2" style="stroke: none; stroke-width: 1; stroke-dasharray: none; stroke-linecap: butt; stroke-linejoin: miter; stroke-miterlimit: 10; fill: #BFBAA5; fill-rule: nonzero; opacity: 1;" transform=" matrix(1 0 0 1 0 0) "/>
  <rect x="35" y="19.5" rx="0" ry="0" width="2" height="2" style="stroke: none; stroke-width: 1; stroke-dasharray: none; stroke-linecap: butt; stroke-linejoin: miter; stroke-miterlimit: 10; fill: #BFBAA5; fill-rule: nonzero; opacity: 1;" transform=" matrix(1 0 0 1 0 0) "/>
  <rect x="42" y="19.5" rx="0" ry="0" width="2" height="2" style="stroke: none; stroke-width: 1; stroke-dasharray: none; stroke-linecap: butt; stroke-linejoin: miter; stroke-miterlimit: 10; fill: #BFBAA5; fill-rule: nonzero; opacity: 1;" transform=" matrix(1 0 0 1 0 0) "/>
  <rect x="14" y="19.5" rx="0" ry="0" width="2" height="2" style="stroke: none; stroke-width: 1; stroke-dasharray: none; stroke-linecap: butt; stroke-linejoin: miter; stroke-miterlimit: 10; fill: #BFBAA5; fill-rule: nonzero; opacity: 1;" transform=" matrix(1 0 0 1 0 0) "/>
  <rect x="21" y="19.5" rx="0" ry="0" width="2" height="2" style="stroke: none; stroke-width: 1; stroke-dasharray: none; stroke-linecap: butt; stroke-linejoin: miter; stroke-miterlimit: 10; fill: #BFBAA5; fill-rule: nonzero; opacity: 1;" transform=" matrix(1 0 0 1 0 0) "/>
  <polygon points="9,20.5 9,14.5 3,20.5 " style="stroke: none; stroke-width: 1; stroke-dasharray: none; stroke-linecap: butt; stroke-linejoin: miter; stroke-miterlimit: 10; fill: #CEC9AE; fill-rule: nonzero; opacity: 1;" transform="  matrix(1 0 0 1 0 0) "/>
</g>
<g style="stroke: none; stroke-width: 1; stroke-dasharray: none; stroke-linecap: butt; stroke-linejoin: miter; stroke-miterlimit: 10; fill: none; fill-rule: nonzero; opacity: 1;" transform="translate(185.25 111.21000000000002) scale(0.38 0.38)" >
  <path d="M 303.673 253.517 c -11.151 -37.754 -67.121 -33.566 -91.279 -44.408 c -24.157 -10.842 -20.386 -47.219 -23.449 -53.548 h -58.932 c -3.058 6.329 0.714 42.711 -23.449 53.548 c -24.157 10.842 -80.133 6.655 -91.279 44.408 c -6.149 20.824 -5.857 27.193 -7.554 50.26 c 0 0 76.8 15.187 150.014 15.187 s 153.488 -15.187 153.488 -15.187 C 309.53 280.704 309.822 274.342 303.673 253.517 z" style="stroke: none; stroke-width: 1; stroke-dasharray: none; stroke-linecap: butt; stroke-linejoin: miter; stroke-miterlimit: 10; fill: #EAE5DC; fill-rule: nonzero; opacity: 1;" transform=" matrix(1 0 0 1 0 0) " stroke-linecap="round" />
  <path d="M 303.673 253.517 c -11.151 -37.754 -67.121 -33.566 -91.279 -44.408 c -24.157 -10.842 -20.386 -47.219 -23.449 -53.548 h -31.206 c 0 0 -0.719 51.024 23.438 61.866 s 80.133 6.655 91.279 44.408 c 5.857 19.83 5.868 26.552 7.324 47.073 c 19.234 -2.816 31.442 -5.126 31.442 -5.126 C 309.53 280.704 309.822 274.342 303.673 253.517 z" style="stroke: none; stroke-width: 1; stroke-dasharray: none; stroke-linecap: butt; stroke-linejoin: miter; stroke-miterlimit: 10; fill: #E0DBD3; fill-rule: nonzero; opacity: 1;" transform=" matrix(1 0 0 1 0 0) " stroke-linecap="round" />
  <path d="M 253.987 218.467 l -22.544 -4.345 c 0 0 -4.794 43.374 -6.278 101.373 c 7.953 -0.748 15.637 -1.568 22.932 -2.422 C 249.592 258.188 253.987 218.467 253.987 218.467 z" style="stroke: none; stroke-width: 1; stroke-dasharray: none; stroke-linecap: butt; stroke-linejoin: miter; stroke-miterlimit: 10; fill: #4C4C4C; fill-rule: nonzero; opacity: 1;" transform=" matrix(1 0 0 1 0 0) " stroke-linecap="round" />
  <path d="M 64.954 218.467 c 0 0 4.407 39.845 5.896 94.859 c 7.284 0.86 14.968 1.681 22.932 2.422 c -1.473 -58.128 -6.284 -101.626 -6.284 -101.626 L 64.954 218.467 z" style="stroke: none; stroke-width: 1; stroke-dasharray: none; stroke-linecap: butt; stroke-linejoin: miter; stroke-miterlimit: 10; fill: #4C4C4C; fill-rule: nonzero; opacity: 1;" transform=" matrix(1 0 0 1 0 0) " stroke-linecap="round" />
  <path d="M 230.009 229.084 c 7.891 2.063 15.541 4.693 22.207 8.453 c 1.006 -12.112 1.776 -19.071 1.776 -19.071 l -22.544 -4.345 C 231.443 214.122 230.847 219.535 230.009 229.084 z" style="stroke: none; stroke-width: 1; stroke-dasharray: none; stroke-linecap: butt; stroke-linejoin: miter; stroke-miterlimit: 10; fill: #393C3D; fill-rule: nonzero; opacity: 1;" transform=" matrix(1 0 0 1 0 0) " stroke-linecap="round" />
  <path d="M 201.878 201.105 c -12.5 -14.951 -10.421 -40.356 -12.927 -45.549 h -58.938 c -2.512 5.193 -0.427 30.599 -12.927 45.549 c 7.655 9.611 23.764 16.232 42.396 16.232 S 194.223 210.716 201.878 201.105 z" style="stroke: none; stroke-width: 1; stroke-dasharray: none; stroke-linecap: butt; stroke-linejoin: miter; stroke-miterlimit: 10; fill: #DBB491; fill-rule: nonzero; opacity: 1;" transform=" matrix(1 0 0 1 0 0) " stroke-linecap="round" />
  <polygon points="209.16,207.41 176.11,236.12 171.17,205.75 " style="stroke: none; stroke-width: 1; stroke-dasharray: none; stroke-linecap: butt; stroke-linejoin: miter; stroke-miterlimit: 10; fill: #C6C5AF; fill-rule: nonzero; opacity: 1;" transform="  matrix(1 0 0 1 0 0) "/>
  <polygon points="109.23,207.74 142.82,236.12 146.8,205.52 " style="stroke: none; stroke-width: 1; stroke-dasharray: none; stroke-linecap: butt; stroke-linejoin: miter; stroke-miterlimit: 10; fill: #C6C5AF; fill-rule: nonzero; opacity: 1;" transform="  matrix(1 0 0 1 0 0) "/>
  <polygon points="172,205.52 146.8,205.52 144.88,211.7 173.96,211.87 " style="stroke: none; stroke-width: 1; stroke-dasharray: none; stroke-linecap: butt; stroke-linejoin: miter; stroke-miterlimit: 10; fill: #C6C5AF; fill-rule: nonzero; opacity: 1;" transform="  matrix(1 0 0 1 0 0) "/>
  <polygon points="146.8,205.52 144.88,211.7 145.99,212.42 " style="stroke: none; stroke-width: 1; stroke-dasharray: none; stroke-linecap: butt; stroke-linejoin: miter; stroke-miterlimit: 10; fill: #AAA88F; fill-rule: nonzero; opacity: 1;" transform="  matrix(1 0 0 1 0 0) "/>
  <polygon points="173.96,211.87 171.17,205.75 172.33,212.86 " style="stroke: none; stroke-width: 1; stroke-dasharray: none; stroke-linecap: butt; stroke-linejoin: miter; stroke-miterlimit: 10; fill: #AAA88F; fill-rule: nonzero; opacity: 1;" transform="  matrix(1 0 0 1 0 0) "/>
  <path d="M 173.432 318.739 l 0.579 -7.987 l -6.081 -80.51 h -16.024 l -7.099 80.515 l 0.585 8.066 c 4.12 0.084 8.24 0.141 12.354 0.141 C 162.95 318.964 168.188 318.879 173.432 318.739 z" style="stroke: none; stroke-width: 1; stroke-dasharray: none; stroke-linecap: butt; stroke-linejoin: miter; stroke-miterlimit: 10; fill: #4C4C4C; fill-rule: nonzero; opacity: 1;" transform=" matrix(1 0 0 1 0 0) " stroke-linecap="round" />
  <polygon points="151.97,230.6 167.93,230.24 168.26,234.73 " style="stroke: none; stroke-width: 1; stroke-dasharray: none; stroke-linecap: butt; stroke-linejoin: miter; stroke-miterlimit: 10; fill: #3A3A38; fill-rule: nonzero; opacity: 1;" transform="  matrix(1 0 0 1 0 0) "/>
  <polygon points="140.54,208.18 178.25,208.16 176.11,221.03 167.59,230.6 151.97,230.6 142.69,221.03 " style="stroke: none; stroke-width: 1; stroke-dasharray: none; stroke-linecap: butt; stroke-linejoin: miter; stroke-miterlimit: 10; fill: #4C4C4C; fill-rule: nonzero; opacity: 1;" transform="  matrix(1 0 0 1 0 0) "/>
  <path d="M 146.796 205.517 l -25.72 -13.984 c 0 0 -3.389 4.817 -11.843 16.21 l 31.723 22.853 l 2.704 -14.923 L 146.796 205.517 z" style="stroke: none; stroke-width: 1; stroke-dasharray: none; stroke-linecap: butt; stroke-linejoin: miter; stroke-miterlimit: 10; fill: #EAEAE1; fill-rule: nonzero; opacity: 1;" transform=" matrix(1 0 0 1 0 0) " stroke-linecap="round" />
  <path d="M 171.122 205.517 l 25.72 -13.984 c 0 0 3.861 4.48 12.315 15.873 l -32.195 23.191 l -2.704 -14.923 L 171.122 205.517 z" style="stroke: none; stroke-width: 1; stroke-dasharray: none; stroke-linecap: butt; stroke-linejoin: miter; stroke-miterlimit: 10; fill: #EAEAE1; fill-rule: nonzero; opacity: 1;" transform=" matrix(1 0 0 1 0 0) " stroke-linecap="round" />
  <path d="M 196.842 191.533 l -25.72 13.984 l 1.776 5.772 c 2.372 2.602 5.109 4.716 8.279 6.138 c 2.799 1.253 6.02 2.31 9.555 3.249 l 18.419 -13.265 C 200.703 196.013 196.842 191.533 196.842 191.533 z" style="stroke: none; stroke-width: 1; stroke-dasharray: none; stroke-linecap: butt; stroke-linejoin: miter; stroke-miterlimit: 10; fill: #E0DBD3; fill-rule: nonzero; opacity: 1;" transform=" matrix(1 0 0 1 0 0) " stroke-linecap="round" />
  <ellipse cx="228.52599999999998" cy="118.55900000000001" rx="21.386" ry="11.629" style="stroke: none; stroke-width: 1; stroke-dasharray: none; stroke-linecap: butt; stroke-linejoin: miter; stroke-miterlimit: 10; fill: #CCA483; fill-rule: nonzero; opacity: 1;" transform=" matrix(-0.177 0.9842 -0.9842 -0.177 385.6545 -85.3725) "/>
  <ellipse cx="90.259" cy="118.566" rx="11.629" ry="21.386" style="stroke: none; stroke-width: 1; stroke-dasharray: none; stroke-linecap: butt; stroke-linejoin: miter; stroke-miterlimit: 10; fill: #DBB491; fill-rule: nonzero; opacity: 1;" transform=" matrix(-0.9842 0.177 -0.177 -0.9842 200.0894 219.2784) "/>
  <path d="M 223.641 47.364 H 159.42 H 95.233 c 0 0 -35.989 146.614 64.187 160.806 C 259.636 193.978 223.641 47.364 223.641 47.364 z" style="stroke: none; stroke-width: 1; stroke-dasharray: none; stroke-linecap: butt; stroke-linejoin: miter; stroke-miterlimit: 10; fill: #DBB491; fill-rule: nonzero; opacity: 1;" transform=" matrix(1 0 0 1 0 0) " stroke-linecap="round" />
  <path d="M 159.42 208.17 c 100.216 -14.192 64.221 -160.806 64.221 -160.806 h -15.024 c 4.114 61.242 9.808 93.774 -13.815 129.24 C 176.085 204.708 159.42 208.17 159.42 208.17 z" style="stroke: none; stroke-width: 1; stroke-dasharray: none; stroke-linecap: butt; stroke-linejoin: miter; stroke-miterlimit: 10; fill: #CCA483; fill-rule: nonzero; opacity: 1;" transform=" matrix(1 0 0 1 0 0) " stroke-linecap="round" />
  <path d="M 192.666 55.233 L 99.369 78.941 c 0 0 8.335 17.042 48.112 22.724 c 53.053 7.577 78.031 -1.523 78.031 -1.523 L 192.666 55.233 z" style="stroke: none; stroke-width: 1; stroke-dasharray: none; stroke-linecap: butt; stroke-linejoin: miter; stroke-miterlimit: 10; fill: #CCA483; fill-rule: nonzero; opacity: 1;" transform=" matrix(1 0 0 1 0 0) " stroke-linecap="round" />
  <path d="M 233.893 90.3 l -7.273 49.366 h -5.227 c 1.557 -15.507 1.754 -31.037 0.275 -46.595 L 233.893 90.3 z" style="stroke: none; stroke-width: 1; stroke-dasharray: none; stroke-linecap: butt; stroke-linejoin: miter; stroke-miterlimit: 10; fill: #393C3D; fill-rule: nonzero; opacity: 1;" transform=" matrix(1 0 0 1 0 0) " stroke-linecap="round" />
  <path d="M 153.406 0.354 C 125.584 -2.316 87.937 9.97 89.949 42.75 c 0 0 -4.474 -1.894 -13.22 5.48 c -7.127 6.008 -8.577 22.106 1.489 40.749 c 4.339 8.032 11.196 20.583 14.04 50.726 h 6.087 c -2.49 -21.15 -3.946 -41.165 1.029 -60.77 c 0 0 20.026 20.521 78.194 20.712 s 72.197 -7.127 74.715 -38.771 C 253.993 39.361 236.012 8.29 153.406 0.354 z" style="stroke: none; stroke-width: 1; stroke-dasharray: none; stroke-linecap: butt; stroke-linejoin: miter; stroke-miterlimit: 10; fill: #515151; fill-rule: nonzero; opacity: 1;" transform=" matrix(1 0 0 1 0 0) " stroke-linecap="round" />
</g>
</svg>